<mxfile host="Electron" agent="Mozilla/5.0 (Macintosh; Intel Mac OS X 10_15_7) AppleWebKit/537.36 (KHTML, like Gecko) draw.io/28.1.2 Chrome/138.0.7204.243 Electron/37.4.0 Safari/537.36" version="28.1.2">
  <diagram name="BasicOT" id="N9N7CULGT7EyKArL0yXC">
    <mxGraphModel dx="1002" dy="766" grid="1" gridSize="10" guides="1" tooltips="1" connect="1" arrows="1" fold="1" page="1" pageScale="1" pageWidth="291" pageHeight="413" math="1" shadow="0">
      <root>
        <mxCell id="0" />
        <mxCell id="1" parent="0" />
        <mxCell id="P60KkeYBdLvhwHjZTeWR-1" value="&lt;font style=&quot;font-size: 16px;&quot;&gt;OT&lt;/font&gt;" style="rounded=1;whiteSpace=wrap;html=1;strokeWidth=3;shadow=1;fillColor=#d5e8d4;strokeColor=#006633;" parent="1" vertex="1">
          <mxGeometry x="110" y="120" width="80" height="80" as="geometry" />
        </mxCell>
        <mxCell id="P60KkeYBdLvhwHjZTeWR-2" value="" style="endArrow=blockThin;html=1;rounded=0;fontFamily=Helvetica;fontSize=12;fontColor=#FF00FF;endFill=1;strokeColor=#FF00FF;strokeWidth=2;" parent="1" edge="1">
          <mxGeometry width="50" height="50" relative="1" as="geometry">
            <mxPoint x="70" y="140" as="sourcePoint" />
            <mxPoint x="110" y="140" as="targetPoint" />
          </mxGeometry>
        </mxCell>
        <mxCell id="P60KkeYBdLvhwHjZTeWR-3" value="" style="endArrow=blockThin;html=1;rounded=0;fontFamily=Helvetica;fontSize=12;fontColor=#FF00FF;endFill=1;strokeColor=#FF00FF;strokeWidth=2;" parent="1" edge="1">
          <mxGeometry width="50" height="50" relative="1" as="geometry">
            <mxPoint x="70" y="180" as="sourcePoint" />
            <mxPoint x="110" y="180" as="targetPoint" />
          </mxGeometry>
        </mxCell>
        <mxCell id="P60KkeYBdLvhwHjZTeWR-4" value="$$m_0$$" style="text;html=1;align=center;verticalAlign=middle;whiteSpace=wrap;rounded=0;fontFamily=Helvetica;fontSize=12;fontColor=#FF00FF;" parent="1" vertex="1">
          <mxGeometry x="40" y="125" width="30" height="30" as="geometry" />
        </mxCell>
        <mxCell id="P60KkeYBdLvhwHjZTeWR-5" value="$$m_1$$" style="text;html=1;align=center;verticalAlign=middle;whiteSpace=wrap;rounded=0;fontFamily=Helvetica;fontSize=12;fontColor=#FF00FF;" parent="1" vertex="1">
          <mxGeometry x="40" y="164" width="30" height="30" as="geometry" />
        </mxCell>
        <mxCell id="P60KkeYBdLvhwHjZTeWR-6" value="" style="endArrow=none;html=1;rounded=0;fontFamily=Helvetica;fontSize=12;fontColor=default;endFill=0;startArrow=blockThin;startFill=1;strokeColor=#007FFF;strokeWidth=2;" parent="1" edge="1">
          <mxGeometry width="50" height="50" relative="1" as="geometry">
            <mxPoint x="190" y="139.67" as="sourcePoint" />
            <mxPoint x="230" y="139.67" as="targetPoint" />
          </mxGeometry>
        </mxCell>
        <mxCell id="P60KkeYBdLvhwHjZTeWR-7" value="" style="endArrow=blockThin;html=1;rounded=0;fontFamily=Helvetica;fontSize=12;fontColor=default;endFill=1;strokeColor=#007FFF;strokeWidth=2;" parent="1" edge="1">
          <mxGeometry width="50" height="50" relative="1" as="geometry">
            <mxPoint x="190" y="180" as="sourcePoint" />
            <mxPoint x="230" y="180" as="targetPoint" />
          </mxGeometry>
        </mxCell>
        <mxCell id="P60KkeYBdLvhwHjZTeWR-8" value="$$b$$" style="text;html=1;align=left;verticalAlign=middle;whiteSpace=wrap;rounded=0;fontFamily=Helvetica;fontSize=12;fontColor=#007FFF;" parent="1" vertex="1">
          <mxGeometry x="233" y="125" width="30" height="30" as="geometry" />
        </mxCell>
        <mxCell id="P60KkeYBdLvhwHjZTeWR-9" value="$$m_{b}$$" style="text;html=1;align=left;verticalAlign=middle;whiteSpace=wrap;rounded=0;fontFamily=Helvetica;fontSize=12;fontColor=#007FFF;" parent="1" vertex="1">
          <mxGeometry x="233" y="164" width="30" height="30" as="geometry" />
        </mxCell>
        <mxCell id="P60KkeYBdLvhwHjZTeWR-11" value="&lt;font face=&quot;Garamond&quot;&gt;&lt;span&gt;$$\mathbb{B}$$&lt;/span&gt;&lt;/font&gt;" style="text;html=1;align=center;verticalAlign=middle;whiteSpace=wrap;rounded=0;fontFamily=Helvetica;fontSize=16;fontColor=#007FFF;rotation=0;" parent="1" vertex="1">
          <mxGeometry x="233" y="145" width="39" height="30" as="geometry" />
        </mxCell>
        <mxCell id="P60KkeYBdLvhwHjZTeWR-17" value="&lt;font face=&quot;Garamond&quot;&gt;$$\mathbb{A}$$&lt;/font&gt;" style="text;html=1;align=center;verticalAlign=middle;whiteSpace=wrap;rounded=0;fontFamily=Helvetica;fontSize=16;fontColor=#FF00FF;rotation=0;" parent="1" vertex="1">
          <mxGeometry x="18" y="145" width="30" height="30" as="geometry" />
        </mxCell>
        <mxCell id="P60KkeYBdLvhwHjZTeWR-18" value="&lt;font style=&quot;font-size: 15px; color: rgb(0, 127, 255);&quot;&gt;$$\begin{aligned} m_b &amp;amp; := m_0\wedge(\neg b) \oplus m_1\wedge b \\ m_b &amp;amp;:= m_0\cdot(1 - b) + m_1\cdot b&amp;nbsp;\end{aligned}$$&lt;/font&gt;" style="text;html=1;align=center;verticalAlign=middle;whiteSpace=wrap;rounded=0;fontFamily=Helvetica;fontSize=12;fontColor=default;" parent="1" vertex="1">
          <mxGeometry x="50" y="200" width="200" height="53" as="geometry" />
        </mxCell>
      </root>
    </mxGraphModel>
  </diagram>
</mxfile>
